<svg id="layer" xmlns="http://www.w3.org/2000/svg" viewBox="0 0 910 930">
  <defs>
    <style>
      .cls-1 {
        fill: #322000;
      }

      .cls-1, .cls-2, .cls-5 {
        stroke: #312001;
      }

      .cls-1, .cls-2, .cls-3, .cls-4, .cls-5, .cls-6, .cls-7 {
        stroke-miterlimit: 10;
      }

      .cls-1, .cls-4, .cls-5, .cls-6 {
        stroke-width: 20px;
      }

      .cls-2, .cls-3 {
        fill: #8a4500;
        stroke-width: 11px;
      }

      .cls-3, .cls-4, .cls-6, .cls-7 {
        stroke: #000;
      }

      .cls-4 {
        fill: #ff623c;
      }

      .cls-5, .cls-6 {
        fill: none;
      }

      .cls-7 {
        fill: #530600;
        stroke-width: 10px;
      }
    </style>
  </defs>
  <title>Artboard 1</title>
  <path class="cls-1" d="M251.37,716.34c-61.54-17-117.61-48-156.87-100.75C59.81,569,48.85,519.72,36.5,464.18,22.8,402.58-4.35,287,47.5,192.86c64-116.19,192.91-142.1,284-159.53,89.86-17.2,370.83-71,501,116.86,118,170.26,24,381.11,17,396.3-9.89,21.48-16.57,37.45-25,49.8-28.7,42-79.13,82.47-187,107.71"/>
  <path class="cls-2" d="M658.41,365.24a66.86,66.86,0,0,0-11.79-15.69c-66.2-68-237-59-414.4,4.44"/>
  <path class="cls-3" d="M232.22,354c-.84,9.43-2,23.89-3.12,41.51-2.41,39.31-4.39,114.11-4.39,114.11.12,8.84,1,65.95,8.75,117.17,4.69,31.17,12.17,63.75,12.17,63.75s1.43,6.34,2.73,11.54a433.53,433.53,0,0,0,51.9,122.54c42.88,68.51,79.21,83.19,89.68,87,38.78,14.18,79.5,10.1,90.72,8.88,10.3-1.13,33-3.77,56.69-14.21,15.37-6.77,49.88-25,79.38-79.92,35.75-66.5,33.65-130,33-157.17-5.4-219.11,28-266.91,8.7-304"/>
  <g>
    <ellipse class="cls-4" cx="357.5" cy="513" rx="62" ry="50"/>
    <ellipse class="cls-4" cx="358.12" cy="513.5" rx="13.02" ry="10.5"/>
  </g>
  <path class="cls-5" d="M484.5,433c2.11-2.65,22.35-27.23,56-26,30.67,1.12,48.47,22.81,51,26"/>
  <path class="cls-6" d="M414.8,587c-6.69,4.66-27.63,20.42-33.87,47.41-2,8.63-7.89,34.13,11.29,55C407.79,706.27,438,718,465,708.77a58,58,0,0,0,32.15-27.62"/>
  <path class="cls-7" d="M339.7,771.69c-3.93,17.8,51.79,47.79,54.15,48.92l.59.28a165.68,165.68,0,0,0,83,15.68c14-1,58.11-4.2,80.28-31.37,2.86-3.51,9.81-10,11.79-20.28,1.25-6.53.26-12.55-.85-15.37-7.06-18-63.47-19.5-88.91-19.54C439,749.94,344.54,749.77,339.7,771.69Z"/>
  <path class="cls-6" d="M345.5,776a307.77,307.77,0,0,0,213-5"/>
  <path class="cls-5" d="M295.5,433c2.11-2.65,22.35-27.23,56-26,30.67,1.12,48.47,22.81,51,26"/>
  <g>
    <ellipse class="cls-4" cx="538.5" cy="513" rx="62" ry="50"/>
    <ellipse class="cls-4" cx="539.12" cy="513.5" rx="13.02" ry="10.5"/>
  </g>
</svg>
