<?xml version="1.0" standalone="no"?>
<!DOCTYPE svg PUBLIC "-//W3C//DTD SVG 20010904//EN"
 "http://www.w3.org/TR/2001/REC-SVG-20010904/DTD/svg10.dtd">
<svg version="1.0" xmlns="http://www.w3.org/2000/svg"
 width="700.000000pt" height="700.000000pt" viewBox="0 0 700.000000 700.000000"
 preserveAspectRatio="xMidYMid meet">
<metadata>
Created by potrace 1.11, written by Peter Selinger 2001-2013
</metadata>
<g transform="translate(0.000000,700.000000) scale(0.100000,-0.100000)"
fill="#000000" stroke="none">
<path d="M3670 6760 c-22 -5 -27 -8 -13 -9 44 -2 31 -18 -15 -18 -26 0 -103
-3 -172 -8 -120 -7 -219 3 -295 31 l-20 7 20 -23 20 -23 -70 7 c-382 40 -544
33 -716 -31 -57 -21 -68 -28 -53 -34 13 -5 14 -8 4 -8 -9 -1 -48 -16 -87 -35
-89 -43 -201 -147 -322 -301 -167 -211 -333 -438 -316 -431 15 5 15 4 -2 -17
-101 -129 -168 -243 -188 -317 -6 -24 -5 -24 9 -6 25 31 20 5 -30 -148 -165
-512 -206 -892 -144 -1315 l19 -132 -48 -47 c-62 -60 -88 -138 -101 -307 -26
-337 1 -596 81 -774 61 -136 164 -305 219 -361 77 -78 135 -105 231 -105 l75
0 12 -111 c21 -195 83 -392 174 -552 83 -144 264 -372 613 -772 94 -107 223
-256 287 -331 222 -260 335 -333 572 -374 139 -23 454 -25 555 -2 153 34 261
109 323 223 14 27 50 114 78 194 67 186 116 282 258 509 156 248 273 455 396
701 163 325 201 444 212 660 5 95 11 127 35 187 75 185 88 335 56 648 -13 128
-14 185 -7 232 25 152 141 1066 151 1190 15 179 5 367 -27 518 l-6 30 22 -20
22 -20 -6 35 c-4 19 -15 116 -26 215 -33 300 -68 438 -135 545 -36 57 -122
148 -157 166 -20 10 -28 22 -28 42 0 15 -9 45 -20 67 l-19 40 5 -47 c4 -30 2
-48 -4 -48 -6 0 -12 8 -15 18 -2 11 -8 2 -15 -23 -6 -22 -18 -49 -26 -60 -15
-19 -15 -19 -16 6 -1 121 -126 241 -249 238 l-36 -1 34 -12 c40 -14 106 -68
122 -99 11 -21 11 -21 -7 -6 -10 9 -30 22 -44 29 l-25 13 21 -24 c29 -33 44
-63 44 -92 0 -22 -2 -22 -46 17 -25 23 -65 59 -89 82 -38 35 -44 38 -47 21 -3
-17 -12 -12 -66 34 -35 29 -85 83 -113 120 -108 145 -193 197 -347 210 -51 5
-103 11 -115 15 -20 6 -21 5 -7 -11 14 -17 13 -18 -5 -11 -63 24 -290 34 -375
16z m-671 -1574 c-12 16 -12 17 3 11 9 -3 34 -9 55 -12 36 -6 37 -5 19 9 -14
12 -16 16 -5 16 20 0 200 -50 223 -62 13 -7 21 -7 26 2 5 9 20 8 61 -4 50 -14
111 -26 199 -40 l35 -6 -24 20 c-27 23 -17 26 19 5 30 -17 44 -19 35 -5 -9 15
1 12 53 -14 26 -13 58 -27 70 -31 22 -6 23 -5 13 14 -14 25 -17 25 54 1 32
-11 69 -20 82 -20 14 0 21 -4 18 -10 -4 -6 12 -10 39 -10 25 0 46 -4 46 -9 0
-14 219 -64 286 -65 34 -1 57 -4 50 -8 -6 -4 35 -8 92 -8 57 0 101 -4 98 -9
-3 -4 18 -11 46 -14 28 -4 54 -10 57 -15 3 -5 33 -21 66 -36 122 -55 267 -138
255 -146 -8 -5 -3 -14 17 -28 15 -12 22 -22 14 -22 -8 0 2 -17 24 -41 78 -87
124 -229 150 -462 21 -190 31 -467 16 -447 -9 12 -11 10 -6 -10 22 -102 43
-215 40 -218 -1 -2 -12 10 -24 27 -28 39 -90 87 -137 107 -33 14 -36 14 -25 1
11 -14 7 -14 -36 0 -100 31 -363 -5 -500 -68 -26 -12 -51 -21 -56 -21 -4 1
-21 -13 -38 -30 -17 -18 -27 -26 -23 -18 15 33 -36 -28 -71 -84 -25 -39 -32
-57 -21 -53 15 6 14 4 -1 -20 -19 -28 -23 -27 42 -9 35 10 247 36 292 36 24 0
43 4 43 9 0 13 132 23 211 15 39 -4 66 -10 60 -14 -6 -3 18 -12 55 -19 69 -12
168 -56 160 -70 -3 -4 18 -24 47 -45 l52 -38 -3 -236 c-3 -223 -5 -240 -27
-292 -18 -42 -25 -82 -30 -166 -12 -227 -48 -338 -216 -674 -123 -246 -249
-468 -387 -685 -130 -204 -202 -345 -257 -505 -26 -74 -60 -160 -75 -190 -52
-104 -131 -165 -265 -207 -86 -26 -480 -26 -604 0 -187 40 -311 118 -458 288
-48 57 -151 175 -228 262 -623 711 -749 884 -834 1149 -36 115 -57 225 -67
361 -6 85 -9 97 -23 91 -115 -49 -250 -3 -335 113 -44 60 -143 238 -179 320
-63 142 -70 192 -73 503 -2 236 0 264 7 165 5 -66 7 -160 4 -210 l-5 -90 23
60 c14 33 40 92 59 130 41 81 88 207 88 236 0 11 -24 45 -54 76 -41 42 -60 54
-75 50 -26 -6 -26 3 -1 52 30 61 90 99 90 58 0 -13 128 -304 178 -402 29 -57
36 -66 42 -50 7 20 7 20 14 -2 11 -36 86 -144 95 -139 12 8 55 -103 71 -179 7
-33 20 -78 30 -100 10 -22 21 -51 25 -64 6 -18 9 -20 16 -10 6 10 9 11 9 2 0
-23 20 -13 20 10 0 17 2 19 9 8 15 -23 25 51 17 127 -4 37 -9 108 -12 157 -6
85 -5 89 10 70 16 -19 17 -17 13 45 -2 36 0 135 5 220 4 85 10 218 13 295 5
162 20 228 73 339 3 5 -2 6 -11 3 -14 -5 -13 0 3 38 10 24 22 61 25 82 6 36 5
37 -10 18 -15 -19 -16 -18 -9 25 11 79 44 224 51 230 5 3 31 -2 58 -12 44 -15
46 -17 20 -18 -43 -1 -11 -20 34 -20 30 0 32 -2 20 -16 -12 -15 -11 -16 11
-10 l25 7 -25 -20 c-35 -28 -21 -35 44 -21 99 20 129 62 160 220 24 118 52
200 81 235 l24 30 1 -30 c0 -28 3 -26 40 33 105 165 265 248 404 209 25 -7 28
-6 17 7 -9 11 0 10 40 -5 48 -18 51 -19 38 -3z m2298 -2108 c-2 -24 -4 -7 -4
37 0 44 2 63 4 43 2 -21 2 -57 0 -80z m0 -130 c-3 -8 -6 -5 -6 6 -1 11 2 17 5
13 3 -3 4 -12 1 -19z"/>
<path d="M2648 3720 c-80 -14 -237 -98 -223 -120 2 -4 -15 -21 -39 -39 -50
-38 -101 -97 -145 -168 -33 -54 -41 -84 -17 -64 11 9 12 6 8 -15 -4 -23 -2
-25 18 -19 17 5 21 4 15 -6 -6 -9 -3 -10 11 -4 10 4 42 13 69 20 30 7 44 14
35 18 -10 4 -8 6 7 6 12 1 28 7 35 14 7 6 46 23 86 36 40 13 77 30 83 38 6 7
20 13 29 13 10 0 20 4 22 10 2 5 53 15 115 21 141 16 190 9 483 -71 230 -62
256 -67 244 -49 -5 8 -1 8 14 0 18 -10 20 -9 17 9 -3 17 -1 19 15 10 29 -16
35 -12 15 10 -18 20 -18 21 1 14 17 -7 17 -6 5 9 -7 9 -11 17 -7 17 4 0 0 12
-8 28 -18 34 -111 135 -97 105 10 -19 4 -17 -47 13 -110 66 -368 129 -583 141
-68 4 -116 9 -106 11 19 4 24 23 5 21 -7 -1 -34 -5 -60 -9z"/>
<path d="M1432 3353 c-46 -22 -97 -85 -140 -172 -30 -61 -37 -86 -37 -134 0
-55 2 -61 36 -92 26 -23 53 -37 94 -45 51 -11 67 -20 131 -81 40 -38 77 -69
83 -69 25 0 41 14 41 36 0 37 -39 151 -56 165 -9 7 -40 16 -71 20 -31 4 -60
12 -66 18 -15 15 0 72 30 119 46 71 84 66 104 -14 13 -50 21 -49 49 6 27 53
25 73 -9 112 -15 18 -39 53 -51 78 -37 73 -72 86 -138 53z"/>
<path d="M2772 3305 c-35 -8 -82 -25 -105 -39 -45 -26 -112 -93 -140 -138 -32
-52 5 -30 73 42 77 82 125 106 239 121 146 18 310 -17 469 -100 39 -21 72 -35
72 -31 0 16 -86 84 -135 106 -30 14 -84 31 -122 39 -85 18 -267 18 -351 0z"/>
<path d="M4460 3264 c-30 -8 -73 -26 -95 -39 -42 -24 -125 -101 -125 -115 0
-4 47 21 105 55 113 68 197 95 298 95 108 0 306 -68 362 -124 35 -35 31 -14
-4 27 -37 42 -116 80 -208 101 -89 20 -258 20 -333 0z"/>
<path d="M2867 3229 c-46 -9 -243 -91 -260 -108 -5 -5 18 -11 50 -15 32 -4 76
-9 98 -11 l40 -5 -32 15 c-18 8 -33 17 -33 20 0 5 55 35 64 35 3 0 10 -18 16
-39 l10 -39 88 -16 c105 -19 186 -21 200 -3 6 6 14 26 18 42 11 47 12 47 65
19 57 -31 62 -52 17 -62 -28 -6 -20 -8 42 -13 184 -15 234 -6 153 27 -21 9
-90 40 -153 69 -177 82 -280 105 -383 84z m71 -56 c-4 -22 -47 -30 -59 -11
-15 23 -10 28 27 28 28 0 35 -3 32 -17z m117 -23 c3 -6 -1 -13 -10 -16 -19 -8
-30 0 -20 15 8 14 22 14 30 1z"/>
<path d="M4493 3181 c-56 -20 -237 -124 -249 -142 -16 -27 18 -30 242 -19 126
6 233 15 237 19 5 5 14 29 20 55 l12 46 53 -25 c28 -13 52 -26 52 -29 0 -3
-12 -12 -27 -21 -28 -16 -28 -16 17 -9 25 4 70 10 100 13 l55 6 -35 21 c-48
28 -155 70 -227 88 -82 21 -185 20 -250 -3z m57 -36 c0 -17 -29 -34 -47 -28
-19 7 -16 31 5 36 32 9 42 7 42 -8z m115 -26 c10 -15 -1 -23 -20 -15 -9 3 -13
10 -10 16 8 13 22 13 30 -1z m-242 -31 c2 -13 8 -31 12 -42 7 -17 4 -18 -36
-11 -24 4 -46 9 -48 11 -5 5 50 64 60 64 4 0 9 -10 12 -22z"/>
<path d="M4182 3145 c-43 -36 -62 -84 -61 -152 l1 -58 9 54 c11 62 46 130 85
160 18 14 22 21 11 21 -8 0 -29 -11 -45 -25z"/>
<path d="M3556 3115 c14 -14 31 -40 39 -58 8 -17 14 -24 15 -15 1 41 -37 98
-65 98 -9 0 -5 -9 11 -25z"/>
<path d="M4971 2910 c-13 -11 -19 -20 -14 -20 6 0 18 9 28 20 23 25 17 25 -14
0z"/>
<path d="M2755 2780 c33 -16 74 -32 90 -35 17 -3 -8 10 -54 30 -101 42 -119
45 -36 5z"/>
<path d="M4923 2803 c9 -2 23 -2 30 0 6 3 -1 5 -18 5 -16 0 -22 -2 -12 -5z"/>
<path d="M3511 2264 c0 -11 3 -14 6 -6 3 7 2 16 -1 19 -3 4 -6 -2 -5 -13z"/>
<path d="M3503 2160 c0 -47 2 -66 4 -42 2 23 2 61 0 85 -2 23 -4 4 -4 -43z"/>
<path d="M3511 2038 c-2 -31 18 -66 46 -81 15 -8 64 -33 108 -56 44 -23 84
-46 90 -52 5 -5 14 -9 20 -9 5 0 3 6 -6 13 -8 7 -35 30 -60 51 l-44 39 40 -23
c131 -76 166 -90 223 -89 31 0 65 3 74 7 10 4 -18 7 -60 7 -75 0 -80 2 -172
53 -52 29 -100 50 -108 47 -7 -2 -10 -1 -7 5 5 8 -82 40 -110 40 -7 0 -17 15
-23 33 -5 17 -10 24 -11 15z"/>
<path d="M4225 1997 c-44 -26 -86 -62 -117 -101 l-33 -41 40 31 c22 17 64 43
92 59 29 15 60 36 69 46 16 18 16 19 -7 19 -13 -1 -33 -6 -44 -13z"/>
<path d="M4743 1875 c0 -22 2 -30 4 -17 2 12 2 30 0 40 -3 9 -5 -1 -4 -23z"/>
<path d="M2839 1793 l-24 -28 28 24 c25 23 32 31 24 31 -2 0 -14 -12 -28 -27z"/>
<path d="M3015 1695 c-65 -14 -115 -32 -115 -40 0 -2 36 -44 81 -92 44 -49
135 -152 200 -230 66 -78 146 -163 177 -188 67 -54 194 -118 272 -136 80 -19
240 -14 332 10 140 36 186 80 320 305 80 133 168 262 233 342 l25 31 -109 7
c-134 9 -189 0 -360 -59 -169 -59 -211 -59 -430 -5 -89 23 -206 47 -259 55
-118 18 -286 18 -367 0z m214 -81 c19 -24 21 -25 45 -9 37 25 71 12 103 -38
15 -23 29 -44 30 -46 2 -3 10 5 19 17 26 38 79 30 125 -18 23 -24 41 -36 45
-29 3 6 22 17 41 25 45 19 103 4 137 -37 l26 -30 28 21 c43 32 99 42 139 25
18 -8 33 -18 33 -24 0 -5 13 4 29 20 33 33 66 37 82 11 10 -16 14 -15 44 15
36 36 62 42 71 18 4 -9 3 -45 -1 -82 -8 -74 -37 -116 -78 -112 -14 2 -35 -9
-56 -29 -23 -22 -43 -32 -65 -32 -19 0 -39 -9 -53 -24 -32 -33 -136 -49 -172
-27 -8 5 -25 3 -43 -6 -25 -13 -40 -13 -86 -4 -57 11 -102 34 -102 51 0 6 -19
10 -42 10 -48 0 -100 27 -118 61 -9 15 -15 18 -23 10 -29 -29 -108 12 -121 64
-5 18 -13 25 -30 25 -59 0 -86 39 -86 123 0 78 38 103 79 51z m176 -360 c143
-69 250 -97 380 -98 55 -1 120 2 145 6 43 7 42 6 -20 -18 -250 -97 -423 -65
-612 115 -49 46 -98 97 -110 114 -18 26 -13 24 43 -18 35 -26 114 -71 174
-101z"/>
<path d="M4680 1380 c-17 -33 -28 -60 -25 -60 2 0 18 27 35 60 17 33 28 60 25
60 -2 0 -18 -27 -35 -60z"/>
<path d="M3788 873 c6 -2 18 -2 25 0 6 3 1 5 -13 5 -14 0 -19 -2 -12 -5z"/>
</g>
</svg>
