<?xml version="1.0" standalone="no"?>
<!DOCTYPE svg PUBLIC "-//W3C//DTD SVG 20010904//EN"
 "http://www.w3.org/TR/2001/REC-SVG-20010904/DTD/svg10.dtd">
<svg version="1.0" xmlns="http://www.w3.org/2000/svg"
 width="1024.000000pt" height="1024.000000pt" viewBox="0 0 1024.000000 1024.000000"
 preserveAspectRatio="xMidYMid meet">
<metadata>
Created by potrace 1.11, written by Peter Selinger 2001-2013
</metadata>
<g transform="translate(0.000000,1024.000000) scale(0.100000,-0.100000)"
fill="#000000" stroke="none">
<path d="M5557 8960 c-52 -9 -73 -20 -41 -20 10 0 26 -5 34 -10 11 -7 -1 -10
-40 -9 -30 1 -129 -2 -220 -6 -134 -6 -179 -5 -240 8 -41 9 -83 19 -94 23 -16
6 -17 5 -6 -15 6 -13 10 -25 7 -27 -2 -2 -51 3 -108 11 -57 9 -196 18 -309 21
-238 7 -343 -6 -487 -58 -84 -31 -87 -33 -53 -38 l35 -6 -41 -7 c-61 -10 -170
-69 -246 -132 -37 -31 -109 -106 -161 -168 -130 -155 -482 -621 -455 -603 43
30 40 16 -7 -36 -82 -91 -184 -261 -210 -348 l-8 -25 23 20 23 20 -7 -20 c-4
-11 -32 -99 -61 -195 -107 -346 -162 -593 -186 -845 -16 -171 -6 -524 20 -695
12 -74 21 -138 21 -141 0 -4 -14 -12 -30 -19 -70 -29 -128 -131 -155 -271 -22
-119 -31 -479 -15 -654 21 -241 65 -374 211 -630 105 -185 172 -260 275 -312
65 -31 86 -37 152 -39 l77 -2 8 -83 c18 -203 79 -425 165 -595 112 -223 284
-447 780 -1015 98 -114 238 -276 309 -360 248 -293 373 -385 606 -444 188 -47
567 -58 752 -20 115 23 233 83 303 153 71 71 115 155 182 347 82 237 130 332
317 628 272 429 581 1031 648 1263 31 108 55 270 55 376 0 73 4 94 30 152 42
93 76 225 90 353 10 90 9 136 -4 273 -40 418 -40 377 4 697 132 962 143 1070
144 1333 1 191 -3 265 -16 336 -10 50 -21 100 -24 110 -6 16 -2 15 20 -6 l28
-25 -6 45 c-4 25 -18 146 -32 270 -38 338 -68 463 -145 593 -48 80 -143 185
-193 212 -31 17 -36 25 -36 55 0 29 -32 120 -42 120 -2 0 -2 -33 -1 -72 2 -72
2 -73 -9 -28 l-11 45 -8 -42 c-9 -48 -35 -103 -49 -103 -6 0 -10 17 -10 38 0
82 -81 195 -168 234 -23 10 -66 21 -95 25 l-52 5 51 -26 c51 -26 88 -60 119
-108 22 -35 8 -36 -24 -2 -13 13 -33 30 -45 36 -17 9 -16 6 6 -18 32 -35 48
-74 48 -117 -1 -30 -1 -31 -13 -11 -14 24 -50 56 -120 103 -27 18 -53 44 -59
57 -14 29 -28 31 -28 4 0 -11 -3 -20 -6 -20 -18 0 -162 142 -208 204 -29 39
-78 94 -109 123 -96 87 -165 110 -375 126 l-64 5 19 -21 c18 -20 17 -20 -2
-12 -71 28 -124 36 -245 40 -74 2 -157 0 -183 -5z m-877 -1841 l55 -21 -19 21
c-22 25 -20 26 25 7 19 -7 49 -16 68 -20 l33 -6 -23 20 c-17 13 -20 19 -9 20
23 0 168 -37 234 -59 70 -25 67 -24 60 -7 -4 10 23 6 106 -15 61 -16 137 -32
168 -35 l57 -7 -19 22 c-24 26 -16 26 35 1 32 -15 40 -16 35 -5 -8 22 4 19 78
-20 80 -42 102 -45 85 -14 -10 19 -9 21 7 16 132 -40 163 -46 194 -41 35 5 35
5 10 -10 -25 -15 -25 -15 20 -17 46 -1 108 -16 80 -19 -8 0 39 -15 105 -32 89
-23 144 -31 213 -32 80 -1 90 -3 75 -15 -15 -11 4 -12 127 -7 130 5 142 4 115
-9 l-30 -14 28 -1 c46 0 118 -22 124 -36 3 -8 10 -14 16 -14 12 0 320 -164
352 -187 19 -14 19 -15 -9 -10 l-28 5 28 -24 c16 -13 32 -23 37 -24 4 0 7 -4
7 -10 0 -5 -8 -6 -17 -3 -11 4 -4 -10 18 -35 72 -84 125 -210 154 -366 37
-197 72 -761 45 -726 -9 13 -10 12 -6 -5 18 -75 57 -287 54 -300 -2 -10 -18 5
-47 45 -41 56 -102 110 -158 139 -19 10 -22 9 -17 -4 5 -13 0 -13 -37 2 -73
28 -285 24 -424 -9 -136 -32 -216 -62 -255 -95 -17 -13 -30 -21 -30 -17 0 4
-19 -10 -41 -31 -23 -22 -39 -33 -35 -25 12 23 -37 -36 -58 -71 l-18 -31 28
19 29 18 -15 -21 c-8 -12 -26 -36 -39 -54 -21 -28 -21 -31 -4 -22 19 11 176
36 293 47 36 4 97 13 137 21 120 23 363 15 382 -13 3 -6 24 -13 46 -17 70 -13
203 -86 191 -104 -2 -4 17 -21 44 -38 l47 -31 6 99 c15 243 38 69 41 -309 1
-152 -1 -176 -24 -253 -25 -85 -25 -85 -28 -41 l-3 45 -30 -90 c-17 -49 -36
-98 -43 -109 -8 -12 -16 -72 -20 -145 -16 -298 -53 -412 -285 -876 -97 -193
-200 -401 -230 -463 -54 -111 -172 -317 -194 -336 -6 -5 -4 1 5 15 25 41 132
245 125 240 -3 -3 -43 -64 -88 -135 -209 -331 -267 -443 -347 -677 -28 -80
-65 -174 -82 -209 -61 -119 -166 -198 -319 -237 -103 -26 -539 -23 -671 5
-238 51 -370 141 -594 408 -56 66 -193 226 -306 355 -496 569 -696 828 -790
1025 -91 189 -146 412 -157 633 -3 72 -7 132 -9 132 -2 0 -27 -9 -56 -21 -39
-15 -69 -20 -113 -17 -154 10 -253 115 -415 443 -68 137 -103 249 -119 385
-16 132 -15 706 2 735 6 12 24 45 39 73 26 47 69 92 90 92 4 0 13 -10 18 -22
36 -87 164 -367 198 -433 29 -57 41 -73 42 -56 0 18 17 -4 62 -79 47 -80 63
-100 68 -86 9 27 55 -81 86 -202 13 -53 31 -110 38 -127 8 -16 20 -48 27 -70
9 -27 14 -34 17 -22 4 18 4 18 18 0 13 -17 13 -17 14 4 0 27 17 39 23 16 2
-10 7 8 11 39 6 38 3 93 -8 167 -9 60 -16 143 -16 183 1 68 2 71 15 48 13 -23
14 -13 15 105 0 122 13 360 25 485 4 41 3 49 -5 33 -5 -13 -11 -23 -13 -23 -5
0 31 242 44 290 6 25 24 69 40 98 l28 54 -26 -17 c-19 -13 -24 -14 -20 -4 28
65 56 139 61 164 l6 30 -17 -30 c-9 -17 -18 -25 -20 -18 -12 35 54 343 73 343
6 0 28 -7 47 -15 20 -8 58 -15 84 -16 36 0 43 -3 28 -9 -11 -5 -36 -9 -55 -10
-34 -1 -34 -2 -10 -11 14 -6 42 -9 63 -7 37 4 37 3 15 -13 l-22 -17 30 5 29 5
-35 -29 -34 -30 34 4 c85 10 103 16 140 49 44 40 60 80 90 229 27 136 58 220
97 263 l32 37 1 -29 c0 -27 5 -23 50 45 64 94 137 161 220 202 59 29 73 32
161 32 77 0 95 3 87 13 -14 16 -13 16 52 -9z"/>
<path d="M4265 5356 c-49 -15 -121 -52 -154 -77 -20 -16 -21 -19 -6 -19 11 0
-6 -17 -41 -41 -79 -55 -127 -102 -179 -174 -46 -64 -86 -139 -64 -117 21 19
30 14 23 -13 -7 -28 4 -32 38 -14 18 9 20 9 15 -4 -5 -13 -1 -14 26 -5 18 5
39 12 47 14 13 5 13 6 0 14 -11 7 -4 10 25 11 30 0 35 2 20 8 -16 7 -13 9 20
15 22 4 75 19 118 33 58 18 77 28 73 39 -4 11 4 14 32 14 25 0 33 3 23 9 -26
16 129 36 284 36 l150 0 287 -77 c157 -43 290 -78 294 -78 4 0 -7 11 -26 25
-36 26 -34 33 3 14 l22 -12 -20 23 -20 23 22 -12 c20 -10 22 -9 16 5 -5 13 4
10 33 -10 54 -37 64 -32 23 11 l-34 36 34 -23 34 -24 -22 31 c-13 17 -21 36
-17 41 3 5 -12 29 -34 53 -24 26 -37 36 -33 24 6 -19 5 -19 -18 1 -72 64 -151
97 -343 144 -162 40 -313 60 -459 60 -109 1 -120 2 -103 15 19 14 18 15 -15
14 -19 0 -52 -6 -74 -13z"/>
<path d="M4570 4805 c-30 -7 -111 -40 -178 -73 l-124 -59 64 -7 c34 -4 81 -9
103 -12 l40 -5 -35 16 c-28 13 -32 18 -20 26 22 15 88 49 95 49 3 0 5 -19 5
-42 0 -24 4 -49 8 -56 11 -17 128 -41 238 -48 89 -7 92 -6 107 17 9 13 19 43
23 66 l6 42 47 -23 c25 -13 57 -36 70 -50 l24 -26 -34 -14 -34 -15 66 -1 c36
0 101 -3 144 -7 56 -4 76 -3 71 5 -9 16 -369 189 -429 207 -75 22 -193 27
-257 10z m108 -62 c4 -26 -37 -57 -62 -47 -18 7 -32 47 -21 64 4 6 23 10 43 8
29 -2 38 -8 40 -25z m129 -39 c8 -21 -13 -42 -28 -27 -13 13 -5 43 11 43 6 0
13 -7 17 -16z"/>
<path d="M6533 4765 c-64 -18 -130 -50 -244 -121 -101 -62 -120 -81 -98 -95
13 -9 90 -6 174 9 l40 7 -44 5 c-25 3 -46 11 -49 18 -3 11 63 82 77 82 4 0 13
-21 21 -48 l15 -47 85 -3 c47 -2 122 0 167 3 80 7 82 7 92 37 6 17 11 46 11
64 0 19 3 34 6 34 4 0 41 -16 82 -36 l75 -36 -29 -20 -29 -19 34 6 c19 4 66
10 105 14 l71 6 -86 42 c-191 94 -365 130 -476 98z m27 -55 c0 -18 -26 -40
-49 -40 -5 0 -17 8 -27 17 -16 16 -15 18 12 30 43 18 64 16 64 -7z m130 -25
c13 -16 6 -35 -15 -35 -18 0 -28 17 -21 35 7 19 20 19 36 0z"/>
<path d="M6173 3311 c-82 -53 -87 -66 -8 -24 35 19 67 39 71 44 14 23 -6 17
-63 -20z"/>
<path d="M5425 3300 c17 -11 62 -37 100 -56 l70 -35 -35 31 c-36 31 -95 63
-140 75 -23 6 -23 5 5 -15z"/>
</g>
</svg>
