<?xml version="1.0" standalone="no"?>
<!DOCTYPE svg PUBLIC "-//W3C//DTD SVG 20010904//EN"
 "http://www.w3.org/TR/2001/REC-SVG-20010904/DTD/svg10.dtd">
<svg version="1.0" xmlns="http://www.w3.org/2000/svg"
 width="700.000000pt" height="700.000000pt" viewBox="0 0 700.000000 700.000000"
 preserveAspectRatio="xMidYMid meet">
<metadata>
Created by potrace 1.11, written by Peter Selinger 2001-2013
</metadata>
<g transform="translate(0.000000,700.000000) scale(0.100000,-0.100000)"
fill="#898989" stroke="none">
<path d="M3775 6773 c-139 -14 -142 -14 -111 -27 27 -11 25 -12 -30 -13 -33
-1 -115 -4 -184 -7 -117 -5 -206 5 -275 30 -20 7 -20 7 -1 -14 19 -22 19 -22
-10 -22 -16 1 -78 7 -139 14 -149 18 -372 18 -465 1 -107 -21 -230 -66 -204
-76 16 -6 16 -8 2 -8 -57 -3 -193 -91 -276 -180 -119 -127 -489 -614 -445
-586 25 17 24 14 -9 -26 -66 -78 -129 -178 -164 -260 -39 -92 -42 -106 -14
-64 26 40 25 23 -5 -68 -60 -183 -125 -429 -154 -577 -49 -252 -51 -585 -5
-854 l15 -88 -41 -35 c-94 -81 -115 -185 -114 -568 1 -342 31 -450 201 -745
103 -177 217 -257 354 -248 l59 4 1 -35 c0 -20 2 -44 4 -55 2 -10 6 -39 9 -65
11 -103 65 -310 88 -339 6 -6 8 -12 4 -12 -8 0 32 -81 87 -174 69 -119 340
-463 540 -686 18 -20 63 -71 102 -115 38 -44 74 -85 80 -91 5 -6 33 -37 60
-69 251 -294 285 -328 384 -393 137 -88 282 -121 558 -126 342 -7 497 51 607
226 20 32 36 59 35 60 0 2 4 14 9 28 6 14 29 79 52 145 44 123 92 229 149 325
42 70 143 232 154 245 18 22 120 199 225 390 81 146 236 469 265 552 40 111
64 250 68 393 1 36 5 70 9 75 14 18 57 149 75 225 19 86 27 249 15 330 -30
214 -30 309 3 545 15 105 29 210 32 235 3 25 8 59 10 75 3 17 14 102 25 190
28 217 27 214 46 355 29 215 22 568 -13 695 -6 20 -6 20 16 0 l22 -19 -5 24
c-3 14 -8 57 -11 95 -4 39 -8 84 -10 100 -2 17 -7 53 -10 80 -24 212 -40 289
-81 394 -44 111 -136 231 -206 267 -20 10 -28 22 -28 42 0 28 -34 112 -45 112
-3 0 -4 -4 -1 -9 10 -16 14 -91 5 -91 -5 0 -9 9 -9 19 0 34 -15 30 -17 -4 -1
-18 -9 -48 -19 -66 l-18 -34 -7 48 c-8 49 -43 120 -75 149 -39 34 -108 62
-163 65 l-56 3 48 -17 c32 -11 61 -31 88 -61 37 -43 48 -73 14 -38 -9 9 -26
21 -38 27 l-22 12 21 -24 c29 -33 44 -63 44 -91 -1 -23 -1 -23 -18 -3 -9 12
-38 35 -64 53 -25 17 -60 48 -77 69 -22 27 -29 31 -24 15 3 -14 1 -22 -7 -22
-17 0 -127 100 -154 141 -48 72 -139 160 -195 189 -66 32 -91 39 -190 45 -40
2 -83 7 -94 11 -20 6 -21 5 -7 -11 14 -17 13 -17 -10 -10 -50 16 -86 22 -155
24 -38 1 -72 3 -75 5 -3 1 -18 0 -35 -1z"/>
</g>
</svg>
