<?xml version="1.0" standalone="no"?>
<!DOCTYPE svg PUBLIC "-//W3C//DTD SVG 20010904//EN"
 "http://www.w3.org/TR/2001/REC-SVG-20010904/DTD/svg10.dtd">
<svg version="1.0" xmlns="http://www.w3.org/2000/svg"
 width="864.000000pt" height="864.000000pt" viewBox="0 0 864.000000 864.000000"
 preserveAspectRatio="xMidYMid meet">
<metadata>
Created by potrace 1.11, written by Peter Selinger 2001-2013
</metadata>
<g transform="translate(0.000000,864.000000) scale(0.100000,-0.100000)"
fill="#000000" stroke="none">
<path d="M4615 8358 c-45 -3 -96 -11 -115 -16 l-35 -10 30 -1 c17 -1 36 -5 43
-10 8 -5 -9 -7 -42 -6 -31 1 -99 -4 -151 -10 -163 -19 -323 -4 -442 42 -14 5
-13 2 5 -17 29 -32 28 -41 -5 -36 -151 25 -301 37 -498 37 -203 1 -297 -15
-450 -74 -75 -29 -78 -32 -50 -38 23 -5 25 -7 8 -8 -32 -1 -124 -44 -185 -85
-131 -87 -259 -235 -599 -691 -128 -172 -158 -215 -128 -187 7 6 17 12 22 12
5 0 -11 -24 -36 -52 -67 -80 -125 -172 -167 -262 -39 -84 -70 -179 -47 -142
41 64 46 60 21 -14 -66 -199 -155 -525 -195 -718 -71 -349 -71 -861 0 -1174 7
-32 6 -38 -9 -43 -33 -11 -91 -74 -115 -127 -45 -98 -57 -207 -61 -518 -4
-365 14 -503 88 -687 34 -85 123 -259 144 -284 8 -8 14 -19 14 -22 0 -9 68
-115 99 -155 31 -39 124 -112 166 -131 46 -20 83 -26 168 -26 75 0 77 0 78
-25 3 -81 20 -206 40 -295 11 -49 22 -97 24 -106 11 -49 68 -205 101 -274 68
-145 220 -367 394 -575 34 -41 79 -95 99 -120 20 -24 52 -62 72 -85 20 -22 47
-53 60 -69 13 -16 29 -34 34 -40 6 -6 57 -65 115 -131 57 -66 119 -136 136
-155 80 -89 230 -264 309 -360 76 -94 193 -204 276 -260 128 -86 266 -133 454
-157 78 -9 495 -10 560 -1 231 34 378 133 470 316 14 28 48 118 76 199 60 177
151 368 250 524 188 298 223 356 321 529 290 511 457 883 483 1080 4 30 9 64
12 75 2 11 6 76 10 145 5 101 10 133 28 170 27 53 70 188 79 244 4 21 8 48 11
60 21 99 21 247 0 384 -17 109 -25 375 -13 452 6 38 20 142 43 305 13 94 27
204 30 228 2 15 9 64 15 110 6 45 13 98 15 117 2 19 9 73 16 120 6 47 13 99
15 115 2 17 6 50 9 75 10 73 13 101 20 170 4 36 8 67 10 70 2 3 6 57 11 120
15 227 7 439 -22 590 -18 94 -18 100 2 72 13 -20 42 -33 31 -14 -3 4 -8 36
-11 72 -4 36 -9 76 -11 90 -2 14 -7 52 -10 85 -3 33 -7 76 -10 95 -2 19 -7 58
-10 85 -17 155 -31 228 -61 333 -49 168 -154 328 -267 406 -51 35 -57 43 -57
75 0 39 -30 114 -51 126 -7 5 -10 4 -5 -3 3 -6 9 -37 11 -69 l5 -58 -20 43
c-10 23 -20 42 -22 42 -2 0 -3 -26 -3 -58 0 -40 -6 -66 -20 -86 l-19 -28 -11
53 c-31 152 -144 253 -293 262 -34 3 -59 0 -56 -4 3 -5 12 -9 20 -9 41 0 138
-72 166 -123 8 -16 2 -14 -30 11 -48 38 -74 43 -37 7 31 -32 50 -69 58 -115
l7 -35 -29 31 c-16 18 -56 50 -89 73 -62 42 -102 84 -102 107 0 8 -4 14 -9 14
-4 0 -8 -8 -8 -17 0 -10 -1 -24 -2 -31 -2 -25 -143 104 -213 195 -106 140
-187 206 -298 242 -19 6 -87 15 -150 20 -63 5 -124 13 -135 17 l-20 7 20 -23
20 -23 -20 7 c-75 29 -250 45 -380 34z"/>
</g>
</svg>
