<?xml version="1.0" standalone="no"?>
<!DOCTYPE svg PUBLIC "-//W3C//DTD SVG 20010904//EN"
 "http://www.w3.org/TR/2001/REC-SVG-20010904/DTD/svg10.dtd">
<svg version="1.0" xmlns="http://www.w3.org/2000/svg"
 width="700.000000pt" height="700.000000pt" viewBox="0 0 700.000000 700.000000"
 preserveAspectRatio="xMidYMid meet">
<metadata>
Created by potrace 1.14, written by Peter Selinger 2001-2017
</metadata>
<g transform="translate(0.000000,700.000000) scale(0.100000,-0.100000)"
fill="#000000" stroke="none">
<path d="M468 5818 c-2 -7 -3 -112 -3 -233 l1 -220 -233 0 -233 0 0 -1165 0
-1165 233 0 232 0 2 -220 c0 -121 2 -226 2 -232 1 -10 148 -13 699 -13 l699 0
-1 -467 0 -468 -455 2 c-251 0 -461 1 -467 2 -8 1 -11 71 -10 231 1 127 -1
230 -4 231 -8 1 -893 1 -912 0 -17 -1 -18 -19 -18 -231 0 -177 3 -230 13 -231
6 -1 111 -2 232 -2 l220 -2 1 -220 c1 -121 2 -226 3 -232 1 -10 194 -13 930
-13 876 0 929 1 932 17 2 10 4 115 3 234 l0 216 224 -1 c123 -1 228 2 233 5 5
3 10 774 11 1865 l3 1859 227 0 c148 -1 229 3 231 10 2 5 4 110 4 233 l0 222
-467 0 -467 0 0 -202 c-1 -112 -2 -217 -2 -233 l-1 -30 -225 0 c-158 0 -228 4
-233 12 -4 6 -6 111 -6 232 l2 221 -698 0 c-550 0 -699 -3 -702 -12z m1398
-1618 l-1 -1165 -465 0 -465 0 -1 1160 c0 638 0 1162 2 1165 1 3 211 5 466 5
l464 0 0 -1165z"/>
<path d="M4198 5598 l-3 -233 -230 0 -230 0 0 -1165 0 -1165 232 0 233 0 0
-233 0 -232 1167 2 1167 3 0 228 c0 199 2 227 15 228 9 1 113 2 231 3 l215 1
3 233 2 232 -467 -2 -467 -3 0 -230 -1 -230 -699 0 -699 0 -1 1162 c-1 767 2
1164 9 1166 6 2 321 3 700 3 l690 -1 0 -233 0 -232 468 0 467 0 0 233 0 232
-233 0 -233 0 1 232 0 233 -1167 0 -1168 0 -2 -232z"/>
</g>
</svg>
