<?xml version="1.0" standalone="no"?>
<!DOCTYPE svg PUBLIC "-//W3C//DTD SVG 20010904//EN"
 "http://www.w3.org/TR/2001/REC-SVG-20010904/DTD/svg10.dtd">
<svg version="1.0" xmlns="http://www.w3.org/2000/svg"
 width="1300.000000pt" height="1300.000000pt" viewBox="0 0 1300.000000 1300.000000"
 preserveAspectRatio="xMidYMid meet">
<metadata>
Created by potrace 1.11, written by Peter Selinger 2001-2013
</metadata>
<g transform="translate(0.000000,1300.000000) scale(0.100000,-0.100000)"
fill="#000000" stroke="none">
<path d="M2970 12959 c-49 -19 -86 -52 -331 -298 -363 -364 -486 -527 -650
-866 -130 -268 -221 -579 -260 -890 -19 -148 -16 -503 5 -655 59 -428 205
-824 428 -1160 71 -107 103 -150 216 -289 l42 -53 -2 -799 -3 -800 -89 -30
c-203 -68 -368 -171 -526 -329 -193 -193 -316 -415 -376 -685 -25 -113 -30
-372 -9 -496 49 -293 182 -547 399 -757 156 -151 346 -265 538 -324 l76 -23 6
-65 c45 -459 110 -815 216 -1180 208 -713 513 -1334 884 -1800 120 -150 400
-433 546 -552 575 -467 1222 -745 1970 -845 195 -26 727 -26 920 0 990 135
1845 600 2462 1340 582 699 1021 1812 1128 2867 7 63 15 141 19 173 l6 58 102
34 c202 68 364 167 519 317 162 158 267 320 338 526 56 160 70 253 70 442 0
178 -14 275 -60 417 -103 316 -333 600 -618 762 -71 41 -167 87 -218 104 -13
5 -16 14 -13 34 63 344 298 1811 304 1898 46 610 -240 1218 -740 1578 -191
137 -486 261 -715 301 -48 9 -91 21 -96 28 -5 7 -20 36 -35 63 -37 72 -127
207 -186 279 -271 332 -633 550 -1077 648 l-105 23 -2046 3 -2046 2 -304 456
c-167 251 -318 469 -336 485 -64 55 -110 72 -208 76 -73 3 -100 -1 -145 -18z
m310 -1209 c127 -190 248 -360 268 -379 20 -18 62 -45 92 -60 l55 -26 2140 -5
c2137 -6 2140 -6 2225 -27 402 -100 686 -349 840 -737 38 -96 78 -154 136
-195 64 -47 113 -60 258 -71 142 -10 243 -32 360 -79 312 -125 563 -412 647
-739 27 -107 42 -253 34 -342 -6 -74 -223 -1381 -230 -1388 -2 -2 -219 320
-483 715 -445 667 -484 722 -533 755 -109 74 173 68 -3174 68 l-3011 0 -51 64
c-240 298 -395 668 -443 1056 -13 109 -13 364 1 488 37 343 178 698 388 980
73 98 231 274 242 270 4 -2 112 -158 239 -348z m6033 -4098 l601 -904 4 -661
c4 -759 -10 -1550 -32 -1737 -86 -722 -283 -1359 -609 -1965 -77 -144 -225
-372 -311 -480 -130 -162 -353 -385 -511 -511 -207 -165 -543 -358 -796 -457
-404 -159 -785 -225 -1237 -214 -233 6 -382 23 -587 67 -769 167 -1464 636
-1907 1285 -109 159 -178 282 -288 509 -144 298 -241 548 -330 856 -92 319
-141 579 -191 1015 -9 71 -13 671 -16 2097 l-4 1998 503 3 c277 1 1540 2 2807
2 l2304 0 600 -903z m-6903 -1823 l0 -581 -37 27 c-331 245 -387 683 -128
1000 31 38 147 135 161 135 2 0 4 -262 4 -581z m8324 475 c86 -86 162 -222
185 -334 17 -78 15 -226 -4 -305 -37 -162 -148 -320 -287 -410 l-28 -17 0 586
0 587 44 -30 c24 -17 65 -51 90 -77z"/>
<path d="M4325 6834 c-38 -8 -112 -36 -164 -61 -175 -84 -308 -249 -358 -443
-22 -86 -21 -245 1 -329 52 -194 183 -354 361 -442 190 -94 410 -93 604 3 68
33 104 60 172 128 99 99 156 200 184 326 24 104 17 273 -14 364 -71 207 -237
370 -446 436 -103 32 -242 40 -340 18z"/>
<path d="M8415 6835 c-38 -9 -113 -36 -165 -62 -78 -38 -109 -60 -176 -127
-67 -67 -89 -98 -127 -176 -83 -171 -97 -334 -42 -507 57 -181 182 -324 359
-409 206 -99 469 -81 659 46 188 126 294 311 304 535 12 260 -109 485 -335
622 -129 77 -328 110 -477 78z"/>
<path d="M5829 5393 c-302 -1061 -344 -1216 -343 -1273 3 -166 116 -298 283
-330 32 -6 262 -10 567 -10 l514 0 0 340 0 340 -286 0 -286 0 7 28 c3 15 128
454 276 975 149 522 269 950 267 952 -4 4 -635 185 -646 185 -4 0 -163 -543
-353 -1207z"/>
<path d="M7575 3634 c-334 -304 -721 -478 -1164 -523 -57 -6 -213 -11 -347
-11 l-244 0 0 -341 0 -341 333 5 c366 5 480 18 724 77 424 105 848 336 1158
632 l70 67 -75 78 c-152 159 -395 403 -400 403 -3 -1 -27 -21 -55 -46z"/>
</g>
</svg>
