<?xml version="1.0" standalone="no"?>
<!DOCTYPE svg PUBLIC "-//W3C//DTD SVG 20010904//EN"
 "http://www.w3.org/TR/2001/REC-SVG-20010904/DTD/svg10.dtd">
<svg version="1.0" xmlns="http://www.w3.org/2000/svg"
 width="1048.000000pt" height="1048.000000pt" viewBox="0 0 1048.000000 1048.000000"
 preserveAspectRatio="xMidYMid meet">
<metadata>
Created by potrace 1.11, written by Peter Selinger 2001-2013
</metadata>
<g transform="translate(0.000000,1048.000000) scale(0.100000,-0.100000)"
fill="#000000" stroke="none">
<path d="M3440 10458 c-51 -34 -242 -250 -309 -348 -109 -159 -188 -344 -232
-542 -32 -146 -38 -436 -11 -593 27 -156 77 -308 148 -447 65 -127 191 -301
211 -294 11 5 13 -54 11 -326 l-3 -331 -59 -14 c-181 -41 -341 -204 -408 -417
-29 -91 -35 -263 -13 -362 36 -165 127 -309 246 -394 67 -46 173 -90 219 -90
15 0 20 -11 25 -57 30 -281 43 -355 95 -560 99 -383 272 -734 485 -984 75 -87
207 -208 292 -268 l53 -36 0 -57 0 -57 -342 -3 c-319 -4 -348 -6 -416 -26
-206 -62 -379 -195 -487 -372 -70 -114 -105 -228 -120 -388 -6 -63 -10 -73
-29 -76 -11 -3 -61 -12 -110 -21 -280 -52 -551 -200 -771 -420 -210 -209 -339
-433 -410 -714 l-25 -96 0 -1075 0 -1075 1353 1 1352 1 3 1187 c1 652 4 1186
6 1186 1 0 34 -20 72 -45 561 -368 1290 -377 1857 -21 58 36 108 66 111 66 3
0 6 -534 6 -1187 l0 -1188 1362 1 1363 2 3 908 c3 950 -2 1127 -38 1289 -42
188 -116 362 -227 529 -81 123 -269 315 -392 401 -174 122 -397 216 -594 251
-51 9 -98 18 -104 20 -8 2 -13 22 -13 53 0 27 -7 86 -16 132 -57 302 -268 542
-564 641 l-95 32 -342 4 -343 4 0 110 0 111 108 111 c59 61 129 139 155 173
202 265 387 710 462 1113 22 117 45 322 45 397 0 34 4 64 8 67 5 3 41 12 80
20 118 25 196 68 287 160 55 55 91 102 113 146 134 272 59 597 -176 770 -64
47 -182 100 -223 100 -10 0 -19 3 -19 6 0 4 27 191 60 416 44 303 60 437 60
516 -1 371 -201 703 -512 846 -66 31 -99 42 -180 60 -21 5 -35 20 -54 59 -133
262 -370 439 -640 477 -48 6 -406 10 -988 10 l-913 0 -144 242 c-79 133 -156
250 -171 261 -14 11 -48 22 -75 24 -39 4 -55 0 -83 -19z m170 -646 c64 -107
115 -181 134 -195 l31 -22 1020 -5 c915 -5 1024 -7 1061 -21 182 -74 301 -198
358 -375 18 -56 61 -106 104 -122 15 -5 65 -15 111 -21 107 -14 188 -51 265
-122 123 -112 187 -258 188 -429 1 -89 -71 -625 -90 -673 -6 -14 -57 59 -219
315 -205 322 -235 364 -278 386 -13 6 -531 12 -1450 16 l-1430 7 -23 27 c-29
35 -115 202 -137 267 -44 131 -56 202 -62 360 -4 125 -2 179 11 247 35 184
110 354 218 493 54 69 61 75 72 58 7 -10 59 -96 116 -191z m2814 -2029 l277
-438 -4 -555 c-4 -441 -8 -578 -21 -666 -47 -326 -127 -587 -262 -857 -88
-174 -156 -269 -289 -403 -214 -215 -428 -333 -718 -396 -83 -18 -134 -22
-272 -22 -149 0 -184 4 -285 27 -434 101 -769 366 -979 777 -106 206 -190 445
-237 677 -51 254 -54 323 -54 1346 l0 947 1284 0 1284 0 276 -437z m745 -579
c89 -76 126 -192 97 -303 -9 -34 -29 -81 -45 -105 -43 -61 -128 -116 -183
-116 -20 0 -20 4 -16 283 1 155 6 287 11 294 11 18 87 -11 136 -53z m-3909
-263 c0 -171 -4 -312 -8 -315 -18 -11 -90 34 -134 83 -61 67 -83 132 -82 236
1 89 21 148 74 215 26 33 116 90 142 90 4 0 8 -139 8 -309z m2632 -2988 c3
-301 5 -321 26 -382 47 -129 137 -235 255 -297 l67 -35 0 -187 0 -187 -85 -83
c-191 -185 -455 -315 -727 -358 -139 -22 -387 -15 -514 14 -254 59 -475 178
-661 356 l-63 59 0 196 0 196 62 30 c79 38 173 130 215 211 57 108 63 149 63
451 0 150 2 273 3 273 2 0 30 -9 63 -20 377 -130 808 -118 1174 34 58 24 108
44 112 45 3 1 8 -142 10 -316z"/>
<path d="M4213 7384 c-60 -22 -128 -86 -160 -152 -25 -50 -28 -68 -28 -152 0
-76 4 -104 21 -141 29 -63 83 -120 141 -149 65 -34 178 -35 239 -3 57 31 112
89 142 153 22 46 27 69 27 140 0 71 -5 94 -26 140 -31 65 -84 122 -142 152
-54 27 -156 33 -214 12z"/>
<path d="M5793 7384 c-60 -22 -128 -86 -160 -152 -25 -50 -28 -68 -28 -152 0
-108 18 -160 78 -227 56 -62 118 -88 207 -88 87 1 136 21 196 82 62 63 89 133
89 233 0 71 -5 94 -26 140 -31 65 -84 122 -142 152 -54 27 -156 33 -214 12z"/>
<path d="M4802 6677 c-95 -332 -172 -618 -172 -635 0 -42 16 -82 48 -116 50
-53 68 -56 362 -56 l270 0 0 170 0 170 -141 0 -141 0 7 28 c3 15 65 231 136
481 71 249 128 458 127 463 -3 9 -286 97 -313 98 -6 0 -88 -272 -183 -603z"/>
<path d="M5674 5799 c-35 -39 -131 -108 -207 -149 -156 -84 -315 -120 -534
-120 l-133 0 0 -171 0 -172 198 6 c253 7 378 34 571 123 90 41 245 144 321
213 l55 50 -120 120 c-66 67 -122 121 -126 121 -3 0 -14 -10 -25 -21z"/>
</g>
</svg>
