<?xml version="1.0" encoding="utf-8"?>
<!-- Generator: Adobe Illustrator 22.0.1, SVG Export Plug-In . SVG Version: 6.00 Build 0)  -->
<svg version="1.1" id="Livello_1" xmlns="http://www.w3.org/2000/svg" xmlns:xlink="http://www.w3.org/1999/xlink" x="0px" y="0px"
	 viewBox="0 0 100 70" style="enable-background:new 0 0 100 70;" xml:space="preserve">
<style type="text/css">
	.st0{fill:none;stroke:#EE4433;}
	.st1{fill:#FEDAC6;}
	.st2{fill:#F5C4B0;}
	.st3{fill:#FECB66;}
	.st4{fill:#F5AD76;}
</style>
<g id="large">
	<path class="st0" d="M55.8,39.5l6.2-1.1c0-1.8-0.1-3.6-0.4-5.3l-6.3-0.2c-0.4-2.1-1.1-4-2.1-5.9l4.8-4.1c-0.9-1.6-1.9-3-3-4.4
		l-5.6,3c-1.4-1.5-3-2.9-4.8-4.1l2.1-6c-0.8-0.5-1.5-0.9-2.4-1.3c-0.8-0.4-1.6-0.7-2.4-1l-3.3,5.4c-2-0.7-4.1-1.1-6.2-1.2L31.3,7
		c-1.8,0-3.6,0.1-5.3,0.4l-0.2,6.3c-2.1,0.4-4.1,1.1-5.9,2.1L15.8,11c-1.5,0.9-3,1.9-4.4,3l3,5.6c-1.5,1.4-2.9,3-4.1,4.8
		c-2.2-0.8-4.2-1.5-6-2.1c-0.4,0.8-0.9,1.5-1.3,2.4c-0.4,0.8-0.7,1.6-1,2.5c1.6,1,3.4,2.1,5.4,3.3c-0.7,2-1,4.1-1.2,6.2L0,37.7
		c0,1.8,0.1,3.6,0.4,5.3l6.3,0.2c0.4,2.1,1.1,4.1,2.1,5.9L4,53.2c0.9,1.5,1.9,3,3,4.4l5.6-3c1.4,1.5,3,2.9,4.8,4.1l-2.1,6
		c0.8,0.4,1.5,0.9,2.3,1.3c0.8,0.4,1.6,0.7,2.5,1.1l3.3-5.4c2,0.7,4.1,1.1,6.2,1.2l1.1,6.2c1.8,0,3.6-0.1,5.3-0.4l0.2-6.3
		c2.1-0.4,4-1.1,5.9-2.1l4.1,4.8c1.6-0.9,3-1.9,4.4-3l-3-5.6c1.5-1.4,2.9-3,4.1-4.8l6,2.1c0.4-0.8,0.9-1.5,1.3-2.4
		c0.4-0.8,0.7-1.6,1-2.5l-5.4-3.3C55.3,43.6,55.7,41.5,55.8,39.5z M42.3,43.4c-3,6.2-10.5,8.9-16.7,5.9c-6.2-3-8.9-10.5-5.9-16.7
		c3-6.2,10.5-8.9,16.7-5.9C42.7,29.7,45.3,37.2,42.3,43.4z"/>
	
		<animateTransform  accumulate="none" additive="replace" attributeName="transform" begin="0s" calcMode="linear" dur="3s" fill="remove" from="0 31 37" repeatCount="indefinite" restart="always" to="360 31 37" type="rotate">
		</animateTransform>
</g>
<g id="small">
	<path class="st0" d="M93.1,20.3l5.9-2.9c-0.4-1.7-0.9-3.3-1.7-4.8l-6.5,1.4c-0.9-1.4-2.1-2.7-3.4-3.8l2.1-6.3
		c-0.7-0.4-1.4-0.9-2.2-1.2c-0.8-0.4-1.6-0.7-2.4-1l-3.6,5.6c-1.7-0.4-3.4-0.5-5.1-0.3L73.3,1c-1.7,0.4-3.3,0.9-4.8,1.7L70,9.1
		c-1.4,0.9-2.7,2-3.8,3.4c-2.2-0.7-4.4-1.5-6.3-2.1c-0.5,0.7-0.9,1.4-1.2,2.2c-0.4,0.8-0.7,1.5-1,2.3c1.7,1.1,3.6,2.3,5.6,3.6
		c-0.4,1.7-0.5,3.4-0.3,5.1c-2.1,1-4.1,2.1-5.9,2.9c0.4,1.6,0.9,3.3,1.7,4.8c2-0.4,4.2-0.9,6.5-1.4c0.9,1.4,2.1,2.8,3.4,3.9
		l-2.1,6.3c0.7,0.4,1.4,0.9,2.2,1.2c0.8,0.4,1.6,0.7,2.3,1c1.1-1.7,2.3-3.6,3.6-5.6c1.7,0.4,3.5,0.5,5.2,0.3l2.9,5.9
		c1.7-0.4,3.3-0.9,4.8-1.7c-0.4-2-0.9-4.2-1.4-6.5c1.4-0.9,2.7-2.1,3.8-3.4l6.3,2.1c0.4-0.7,0.9-1.4,1.2-2.2c0.4-0.8,0.7-1.6,1-2.4
		l-5.6-3.6C93.2,23.7,93.3,21.9,93.1,20.3z M84.4,25.1c-1.7,3.5-5.9,5-9.4,3.3c-3.5-1.7-5-5.9-3.3-9.4c1.7-3.5,5.9-5,9.4-3.3
		C84.6,17.3,86.1,21.5,84.4,25.1z"/>
	<g>
		<path class="st1" d="M81.6,22.1h-0.3v2h0.3c0.5,0,1-0.4,1-1S82.1,22.1,81.6,22.1z"/>
		<path class="st2" d="M73.4,23.1c0,0.5,0.4,1,1,1h0.3v-2h-0.3C73.9,22.1,73.4,22.5,73.4,23.1z"/>
		<path class="st3" d="M81.6,22.1l0.4-2c0.1-0.7-0.4-1.5-1.1-1.6c-0.1,0-0.2,0-0.2,0l0,0c-0.2-0.6-0.7-1-1.4-1h-3.9l-0.6-1l-0.3,0.3
			c-0.9,0.9-0.9,2.4,0,3.3l0,0h5.9L81.6,22.1z"/>
		<path class="st1" d="M81.6,22.1v1.9c0,0.9-0.2,1.8-0.7,2.6l0,0c-0.6,1.1-1.7,1.7-2.9,1.7l0,0c-1.2,0-2.3-0.7-2.9-1.7l0,0
			c-0.4-0.8-0.7-1.7-0.7-2.6v-3.8h5.9L81.6,22.1z"/>
		<path class="st2" d="M75.7,20.1h-1.3v3.8c0,0.9,0.2,1.8,0.7,2.6c0.3,0.6,0.8,1.1,1.4,1.3C75.4,24.7,75.7,20.1,75.7,20.1z"/>
		<path class="st4" d="M73.8,18c-0.2,0.8,0,1.6,0.6,2.2h5.2C75.9,20.1,74.4,18.8,73.8,18z"/>
		<path d="M81.6,24.4h-0.3v-0.6h0.3c0.4,0,0.6-0.3,0.6-0.6c0-0.4-0.3-0.6-0.6-0.6h-0.3v-0.6h0.3c0.7,0,1.3,0.6,1.3,1.3
			S82.3,24.4,81.6,24.4z"/>
		<path d="M74.7,24.4h-0.3c-0.7,0-1.3-0.6-1.3-1.3s0.6-1.3,1.3-1.3h0.3v0.6h-0.3c-0.4,0-0.6,0.3-0.6,0.6s0.3,0.6,0.6,0.6h0.3V24.4z"
			/>
		<path d="M78.3,25h-1c-0.1,0-0.2,0-0.3-0.1C77,24.8,77,24.7,77,24.6l0.6-2.3l0.6,0.2l-0.5,1.9h0.5V25L78.3,25z"/>
		<path d="M78,28.6C78,28.6,78,28.6,78,28.6c-1.3,0-2.5-0.7-3.2-1.9c-0.5-0.8-0.7-1.8-0.7-2.8v-3.8c0-0.2,0.1-0.3,0.3-0.3h5.9
			c0.1,0,0.2,0.1,0.3,0.1l1.3,2c0,0.1,0.1,0.1,0.1,0.2v1.9c0,1-0.2,1.9-0.7,2.8C80.5,27.9,79.3,28.6,78,28.6z M78,28L78,28
			c1.1,0,2.1-0.6,2.6-1.5c0.4-0.8,0.6-1.6,0.6-2.5v-1.8l-1.2-1.7h-5.4v3.5c0,0.9,0.2,1.7,0.6,2.5C75.9,27.4,76.9,28,78,28
			C78,28,78,28,78,28z"/>
		<path d="M77.7,26.3h-0.4v-0.6h0.4c0.5,0,1-0.2,1.3-0.6l0.5,0.5C79.1,26.1,78.4,26.3,77.7,26.3z"/>
		<circle cx="76" cy="22.7" r="0.6"/>
		<ellipse cx="80" cy="22.7" rx="0.6" ry="0.6"/>
		<path d="M81.9,22.5l-0.6-0.1l0.4-2.3c0-0.3,0-0.6-0.2-0.8c-0.2-0.2-0.4-0.4-0.7-0.4c-0.1,0-0.1,0-0.2,0l0,0
			c-0.1,0-0.3-0.1-0.3-0.2c-0.2-0.5-0.6-0.8-1-0.8h-3.9c-0.1,0-0.2-0.1-0.3-0.1l-0.4-0.6l0,0c-0.4,0.4-0.6,0.9-0.6,1.4
			c0,0.5,0.2,1,0.6,1.4l-0.5,0.5c-1-1-1-2.7,0-3.7l0.3-0.3c0.1-0.1,0.2-0.1,0.3-0.1c0.1,0,0.2,0.1,0.2,0.1l0.6,0.8h3.7
			c0.7,0,1.3,0.4,1.6,1c0,0,0,0,0.1,0c0.5,0.1,0.8,0.3,1.1,0.7c0.3,0.4,0.4,0.8,0.3,1.3L81.9,22.5z"/>
	</g>
	
		<animateTransform  accumulate="none" additive="replace" attributeName="transform" begin="0s" calcMode="linear" dur="2s" fill="remove" from="0 78 21" repeatCount="indefinite" restart="always" to="-360 78 21" type="rotate">
		</animateTransform>
</g>
</svg>
