<?xml version="1.0" encoding="utf-8"?>
<!-- Generator: Adobe Illustrator 22.0.1, SVG Export Plug-In . SVG Version: 6.00 Build 0)  -->
<svg version="1.1" id="Livello_1" xmlns="http://www.w3.org/2000/svg" xmlns:xlink="http://www.w3.org/1999/xlink" x="0px" y="0px"
	 viewBox="0 0 100.3 69.8" style="enable-background:new 0 0 100.3 69.8;" xml:space="preserve">
<style type="text/css">
	.st0{fill:none;stroke:#EE4433;}
	.st1{fill:#FEDAC6;}
	.st2{fill:#F5C4B0;}
	.st3{fill:#FECB66;}
	.st4{fill:#F5AD76;}
	.st5{fill:none;stroke:#EE4433;stroke-width:0.25;}
</style>
<g id="large">
	<path class="st0" d="M56.4,39.1l6.2-1.1c0-1.8-0.1-3.6-0.4-5.3l-6.3-0.2c-0.4-2.1-1.1-4-2.1-5.9l4.8-4.1c-0.9-1.6-1.9-3-3-4.4
		l-5.6,3c-1.4-1.5-3-2.9-4.8-4.1l2.1-6c-0.8-0.5-1.5-0.9-2.4-1.3c-0.8-0.4-1.6-0.7-2.4-1l-3.3,5.4c-2-0.7-4.1-1.1-6.2-1.2l-1.1-6.3
		c-1.8,0-3.6,0.1-5.3,0.4l-0.2,6.3c-2.1,0.4-4.1,1.1-5.9,2.1l-4.1-4.8c-1.5,0.9-3,1.9-4.4,3l3,5.6c-1.5,1.4-2.9,3-4.1,4.8
		c-2.2-0.8-4.2-1.5-6-2.1c-0.4,0.8-0.9,1.5-1.3,2.4c-0.4,0.8-0.7,1.6-1,2.5c1.6,1,3.4,2.1,5.4,3.3c-0.7,2-1,4.1-1.2,6.2l-6.2,1
		c0,1.8,0.1,3.6,0.4,5.3l6.3,0.2c0.4,2.1,1.1,4.1,2.1,5.9l-4.8,4.1c0.9,1.5,1.9,3,3,4.4l5.6-3c1.4,1.5,3,2.9,4.8,4.1l-2.1,6
		c0.8,0.4,1.5,0.9,2.3,1.3c0.8,0.4,1.6,0.7,2.5,1.1l3.3-5.4c2,0.7,4.1,1.1,6.2,1.2l1.1,6.2c1.8,0,3.6-0.1,5.3-0.4l0.2-6.3
		c2.1-0.4,4-1.1,5.9-2.1l4.1,4.8c1.6-0.9,3-1.9,4.4-3l-3-5.6c1.5-1.4,2.9-3,4.1-4.8l6,2.1c0.4-0.8,0.9-1.5,1.3-2.4
		c0.4-0.8,0.7-1.6,1-2.5l-5.4-3.3C55.9,43.2,56.3,41.1,56.4,39.1z M42.9,43c-3,6.2-10.5,8.9-16.7,5.9s-8.9-10.5-5.9-16.7
		s10.5-8.9,16.7-5.9C43.3,29.3,45.9,36.8,42.9,43z"/>
	
		<animateTransform  accumulate="none" additive="replace" attributeName="transform" begin="0s" calcMode="linear" dur="2s" fill="remove" from="0 31 37" repeatCount="indefinite" restart="always" to="360 31 37" type="rotate">
		</animateTransform>
</g>
<g id="small">
	<path class="st0" d="M93.9,19.4l5.8-2.8c-0.4-1.7-0.9-3.2-1.7-4.7l-6.4,1.4c-0.9-1.4-2.1-2.6-3.3-3.7l2.1-6.1
		C89.7,3,89,2.5,88.3,2.2c-0.8-0.4-1.6-0.7-2.3-1l-3.5,5.5c-1.7-0.4-3.3-0.5-5-0.3l-2.8-5.8c-1.7,0.4-3.2,0.9-4.7,1.7l1.5,6.2
		c-1.4,0.9-2.6,1.9-3.7,3.3c-2.2-0.7-4.3-1.5-6.2-2c-0.5,0.7-0.9,1.4-1.2,2.1c-0.4,0.8-0.7,1.5-1,2.2c1.7,1.1,3.5,2.2,5.5,3.5
		c-0.4,1.7-0.5,3.3-0.3,5c-2.1,1-4,2-5.8,2.8c0.4,1.6,0.9,3.2,1.7,4.7c2-0.4,4.1-0.9,6.4-1.4c0.9,1.4,2.1,2.7,3.3,3.8L68,38.7
		c0.7,0.4,1.4,0.9,2.2,1.2c0.8,0.4,1.6,0.7,2.2,1c1.1-1.7,2.2-3.5,3.5-5.5c1.7,0.4,3.4,0.5,5.1,0.3l2.8,5.8c1.7-0.4,3.2-0.9,4.7-1.7
		c-0.4-1.9-0.9-4.1-1.4-6.3c1.4-0.9,2.6-2,3.7-3.3l6.2,2c0.4-0.7,0.9-1.4,1.2-2.1c0.4-0.8,0.7-1.6,1-2.3l-5.5-3.5
		C94,22.7,94.1,20.9,93.9,19.4z M85.1,24.7c-1.7,3.5-5.9,5-9.4,3.3c-3.5-1.7-5-5.9-3.3-9.4c1.7-3.5,5.9-5,9.4-3.3
		C85.3,16.9,86.8,21.1,85.1,24.7z"/>
	<g>
		<path class="st1" d="M82.5,21.7h-0.3v1.9h0.3c0.6,0,1-0.4,1-1S83.1,21.7,82.5,21.7z"/>
		<path class="st2" d="M74.1,22.7c0,0.5,0.5,1,1,1h0.3v-1.9h-0.3C74.6,21.7,74.1,22.2,74.1,22.7z"/>
		<path class="st3" d="M82.5,21.7l0.4-1.9c0.1-0.7-0.4-1.4-1.2-1.6c-0.1,0-0.2,0-0.2,0l0,0c-0.2-0.6-0.8-1-1.4-1h-4l-0.7-1l-0.3,0.4
			c-0.9,0.9-0.9,2.3,0,3.2l0,0h6.1L82.5,21.7z"/>
		<path class="st1" d="M82.5,21.7v1.9c0,0.9-0.2,1.8-0.7,2.6l0,0c-0.6,1-1.8,1.7-3,1.7l0,0c-1.2,0-2.4-0.6-3-1.7l0,0
			c-0.5-0.8-0.7-1.7-0.7-2.6v-3.8h6.1L82.5,21.7z"/>
		<path class="st2" d="M76.5,19.8h-1.3v3.8c0,0.9,0.2,1.8,0.7,2.6c0.3,0.6,0.8,1,1.5,1.3C76.1,24.3,76.5,19.8,76.5,19.8z"/>
		<path class="st4" d="M74.5,17.7c-0.2,0.8,0,1.6,0.6,2.1h5.4C76.7,19.8,75.1,18.5,74.5,17.7z"/>
		<path d="M82.5,24h-0.3v-0.6h0.3c0.4,0,0.7-0.3,0.7-0.6c0-0.4-0.3-0.6-0.7-0.6h-0.3v-0.6h0.3c0.7,0,1.3,0.6,1.3,1.3
			C83.9,23.4,83.3,24,82.5,24z"/>
		<path d="M75.5,24h-0.3c-0.7,0-1.3-0.6-1.3-1.3s0.6-1.3,1.3-1.3h0.3V22h-0.3c-0.4,0-0.7,0.3-0.7,0.6c0,0.4,0.3,0.6,0.7,0.6h0.3V24z
			"/>
		<path d="M79.2,24.6h-1c-0.1,0-0.2,0-0.3-0.1s-0.1-0.2-0.1-0.3l0.7-2.2l0.6,0.2L78.6,24h0.6L79.2,24.6L79.2,24.6z"/>
		<path d="M78.8,28.2L78.8,28.2c-1.4,0-2.6-0.7-3.3-1.8c-0.5-0.8-0.7-1.8-0.7-2.7v-3.8c0-0.2,0.2-0.3,0.3-0.3h6.1
			c0.1,0,0.2,0.1,0.3,0.1l1.3,1.9c0,0.1,0.1,0.1,0.1,0.2v1.8c0,1-0.3,1.9-0.7,2.7C81.5,27.5,80.2,28.2,78.8,28.2z M78.8,27.5
			L78.8,27.5c1.1,0,2.2-0.6,2.7-1.5c0.4-0.7,0.7-1.6,0.7-2.4v-1.7L81,20.2h-5.5v3.4c0,0.8,0.2,1.7,0.7,2.4
			C76.7,26.9,77.7,27.5,78.8,27.5L78.8,27.5z"/>
		<path d="M78.5,25.9h-0.4v-0.6h0.4c0.5,0,1-0.2,1.4-0.6l0.5,0.5C79.9,25.7,79.3,25.9,78.5,25.9z"/>
		<ellipse cx="76.8" cy="22.4" rx="0.7" ry="0.6"/>
		<ellipse cx="80.8" cy="22.4" rx="0.7" ry="0.6"/>
		<path d="M82.9,22.1L82.2,22l0.4-2.3c0-0.3,0-0.6-0.2-0.8c-0.2-0.2-0.4-0.4-0.7-0.4c-0.1,0-0.1,0-0.2,0l0,0c-0.1,0-0.3-0.1-0.3-0.2
			c-0.2-0.4-0.6-0.7-1.1-0.7h-4c-0.1,0-0.2-0.1-0.3-0.1l-0.4-0.6l0,0c-0.4,0.4-0.6,0.9-0.6,1.4c0,0.5,0.2,1,0.6,1.4l-0.5,0.5
			c-1.1-1-1.1-2.7,0-3.7l0.3-0.3c0.1-0.1,0.2-0.1,0.3-0.1s0.2,0.1,0.2,0.1l0.6,0.8h3.8c0.7,0,1.3,0.4,1.6,1c0,0,0,0,0.1,0
			c0.5,0.1,0.9,0.3,1.1,0.7c0.2,0.4,0.4,0.8,0.3,1.3L82.9,22.1z"/>
	</g>
	
		<animateTransform  accumulate="none" additive="replace" attributeName="transform" begin="0s" calcMode="linear" dur="1.5s" fill="remove" from="0 78 21" repeatCount="indefinite" restart="always" to="-360 78 21" type="rotate">
		</animateTransform>
</g>
<path class="st5" d="M68.2,10.5"/>
</svg>
